<?xml version="1.0" standalone="no"?>
<!DOCTYPE svg PUBLIC "-//W3C//DTD SVG 20010904//EN"
 "http://www.w3.org/TR/2001/REC-SVG-20010904/DTD/svg10.dtd">
<svg version="1.0" xmlns="http://www.w3.org/2000/svg"
 width="350.000000pt" height="140.000000pt" viewBox="0 0 350.000000 140.000000"
 preserveAspectRatio="xMidYMid meet">
<metadata>
Created by potrace 1.14, written by Peter Selinger 2001-2017
</metadata>
<g transform="translate(0.000000,140.000000) scale(0.100000,-0.100000)"
fill="#000000" stroke="none">
<path d="M201 1014 c-35 -45 -43 -99 -39 -259 5 -167 18 -216 63 -237 56 -25
102 35 104 135 1 51 -15 39 -23 -17 -4 -25 -16 -55 -26 -68 -18 -22 -19 -22
-37 -5 -16 15 -18 40 -21 190 -4 180 3 240 31 245 20 4 44 -40 53 -97 11 -69
24 -46 24 43 0 78 -10 111 -25 86 -4 -7 -12 -7 -25 0 -31 17 -57 11 -79 -16z"/>
<path d="M1558 1030 c-38 -22 -53 -97 -52 -250 1 -163 14 -222 56 -253 59 -44
109 10 107 115 l-1 53 -13 -50 c-15 -64 -32 -95 -51 -95 -28 0 -36 53 -37 230
-1 176 7 227 36 217 14 -4 42 -58 55 -107 8 -29 10 -20 11 59 1 83 -1 92 -14
81 -12 -10 -19 -10 -27 -2 -14 14 -47 15 -70 2z"/>
<path d="M2560 1031 c0 -6 5 -13 10 -16 6 -4 10 -95 10 -240 0 -145 -4 -236
-10 -240 -23 -15 -6 -25 41 -25 50 0 50 0 35 22 -13 19 -16 62 -16 265 l0 243
-35 0 c-19 0 -35 -4 -35 -9z"/>
<path d="M2720 970 c0 -17 -9 -39 -21 -51 -15 -15 -18 -24 -10 -32 7 -7 11
-67 11 -166 0 -86 3 -166 6 -179 9 -30 49 -40 74 -17 26 24 25 35 -2 32 -23
-2 -23 -1 -26 151 -2 102 1 160 9 174 9 17 9 23 0 26 -6 2 -11 24 -11 48 0 32
-4 44 -15 44 -10 0 -15 -10 -15 -30z"/>
<path d="M575 901 c-3 -5 -1 -12 5 -16 13 -8 14 -342 0 -350 -23 -14 -7 -25
40 -25 47 0 63 11 40 25 -11 7 -14 292 -4 319 3 9 13 16 21 16 12 0 14 -28 11
-180 l-3 -180 35 0 35 0 -3 165 c-4 162 1 195 29 195 13 0 11 -317 -1 -341
-10 -18 -7 -19 40 -19 47 0 63 10 40 25 -6 4 -10 69 -10 163 0 203 1 201 -116
199 -47 -1 -88 1 -91 5 -6 11 -61 10 -68 -1z"/>
<path d="M896 901 c-3 -5 1 -14 9 -21 22 -19 22 -316 -1 -348 -15 -22 -15 -22
35 -22 47 0 64 10 41 25 -6 4 -10 65 -10 151 0 172 12 210 55 168 21 -22 28
-13 16 20 -11 27 -44 36 -57 15 -5 -8 -10 -6 -16 5 -10 17 -63 22 -72 7z"/>
<path d="M1066 902 c-3 -5 1 -15 9 -22 22 -19 22 -316 -1 -348 -15 -22 -15
-22 35 -22 50 0 60 7 41 26 -5 5 -11 90 -12 189 l-3 180 -32 3 c-17 2 -34 -1
-37 -6z"/>
<path d="M1915 900 c-3 -6 1 -13 9 -16 14 -5 16 -31 16 -174 0 -102 -4 -171
-10 -175 -23 -14 -7 -25 35 -25 42 0 58 11 35 25 -13 8 -13 291 0 316 13 23
36 25 44 3 3 -9 6 -80 6 -158 0 -112 -3 -146 -16 -164 -15 -22 -15 -22 35 -22
47 0 64 10 41 25 -6 4 -10 69 -10 163 0 177 -8 202 -60 202 -16 0 -32 -5 -36
-11 -5 -8 -10 -6 -16 5 -10 18 -63 22 -73 6z"/>
<path d="M2330 901 c0 -6 5 -13 10 -16 6 -4 10 -72 10 -171 0 -151 2 -166 20
-184 22 -22 42 -25 71 -10 13 7 19 7 19 0 0 -5 16 -10 35 -10 35 0 43 8 25 26
-5 5 -11 90 -12 189 -3 180 -3 180 -26 183 -13 2 -30 1 -39 -2 -14 -6 -14 -8
1 -24 13 -15 16 -43 16 -159 0 -78 -3 -148 -6 -157 -8 -21 -40 -21 -48 0 -3 9
-6 90 -6 180 l0 164 -35 0 c-19 0 -35 -4 -35 -9z"/>
<path d="M2815 900 c-3 -5 1 -13 9 -16 14 -5 16 -31 16 -174 0 -102 -4 -171
-10 -175 -23 -14 -7 -25 35 -25 45 0 54 7 35 26 -5 5 -11 90 -12 189 l-3 180
-32 3 c-17 2 -34 -2 -38 -8z"/>
<path d="M2940 901 c0 -6 5 -13 10 -16 6 -4 10 -73 10 -175 0 -102 -4 -171
-10 -175 -23 -14 -7 -25 40 -25 l50 0 -16 24 c-13 21 -15 50 -12 170 3 148 10
175 42 163 14 -5 16 -30 16 -166 0 -96 -4 -162 -10 -166 -23 -14 -7 -25 35
-25 42 0 58 11 35 25 -6 4 -10 72 -10 170 0 189 -5 201 -72 192 -21 -3 -38 -1
-38 4 0 5 -16 9 -35 9 -19 0 -35 -4 -35 -9z"/>
<path d="M405 883 c-29 -29 -37 -66 -37 -168 0 -118 16 -173 55 -195 24 -13
30 -13 54 0 38 22 54 79 55 195 0 136 -22 185 -82 185 -16 0 -36 -7 -45 -17z"/>
<path d="M1237 882 c-28 -31 -37 -72 -36 -170 0 -111 13 -157 51 -185 35 -26
73 -16 93 23 9 17 11 30 6 30 -5 0 -11 -7 -15 -15 -7 -18 -47 -20 -64 -3 -7 7
-12 41 -12 84 l0 73 48 3 c45 3 47 4 50 35 4 40 -14 108 -34 128 -21 20 -67
19 -87 -3z"/>
<path d="M1748 883 c-28 -31 -41 -108 -35 -201 7 -103 17 -135 51 -158 37 -23
70 -12 92 33 15 31 19 61 19 160 0 108 -2 125 -21 150 -26 35 -82 43 -106 16z"/>
<path d="M2177 882 c-30 -33 -22 -100 23 -188 45 -89 53 -144 20 -144 -11 0
-20 1 -20 3 0 1 -9 27 -20 57 l-19 55 0 -79 c-1 -70 1 -77 14 -66 12 10 19 10
27 2 18 -18 46 -14 68 8 33 33 27 96 -19 182 -42 80 -55 126 -41 148 13 21 31
1 52 -58 l16 -47 1 70 1 70 -44 2 c-31 2 -47 -2 -59 -15z"/>
<path d="M3203 873 c-13 -20 -19 -53 -21 -128 -7 -177 25 -259 87 -226 16 9
21 9 21 -1 0 -28 -13 -57 -27 -62 -16 -6 -53 10 -65 28 -5 7 -8 4 -8 -6 0 -26
36 -58 66 -58 38 0 61 16 73 51 13 37 15 429 3 429 -4 0 -13 -5 -20 -12 -9 -9
-15 -9 -24 0 -22 22 -66 14 -85 -15z m77 -22 c12 -24 13 -270 1 -290 -5 -8
-16 -11 -25 -8 -14 5 -16 28 -16 155 0 82 3 152 7 155 11 12 22 8 33 -12z"/>
</g>
</svg>
