<?xml version="1.0" standalone="no"?>
<!DOCTYPE svg PUBLIC "-//W3C//DTD SVG 20010904//EN"
 "http://www.w3.org/TR/2001/REC-SVG-20010904/DTD/svg10.dtd">
<svg version="1.0" xmlns="http://www.w3.org/2000/svg"
 width="200.000000pt" height="65.000000pt" viewBox="0 0 200.000000 65.000000"
 preserveAspectRatio="xMidYMid meet">
<metadata>
Created by potrace 1.14, written by Peter Selinger 2001-2017
</metadata>
<g transform="translate(0.000000,65.000000) scale(0.100000,-0.100000)"
fill="#000000" stroke="none">
<path d="M617 496 c11 -41 10 -302 0 -344 -8 -29 -7 -32 15 -32 30 0 54 15 39
24 -7 5 -11 51 -10 134 l1 127 24 -110 c31 -141 43 -177 57 -172 8 2 13 59 15
187 1 115 7 188 13 197 9 10 4 13 -23 13 l-35 0 3 -50 c2 -27 6 -73 8 -101 5
-75 -9 -47 -29 58 l-17 91 -34 4 c-34 4 -35 4 -27 -26z"/>
<path d="M507 498 c10 -29 11 -316 0 -345 -6 -17 -3 -23 13 -28 29 -9 65 4 51
18 -16 16 -15 349 1 365 9 9 3 12 -31 12 -40 0 -42 -1 -34 -22z"/>
<path d="M815 325 c0 -192 0 -196 21 -201 24 -6 73 15 95 42 16 19 26 209 14
270 -9 51 -45 84 -92 84 l-38 0 0 -195z"/>
<path d="M998 508 c17 -17 17 -354 0 -364 -15 -10 29 -26 51 -19 14 4 16 30
16 200 l0 195 -39 0 c-31 0 -37 -3 -28 -12z"/>
<path d="M1146 507 c-8 -7 -20 -25 -26 -40 -13 -36 -13 -231 0 -279 12 -40 44
-70 67 -61 21 8 43 58 42 95 0 31 -1 30 -15 -15 -11 -35 -19 -47 -32 -45 -24
5 -30 39 -31 174 -1 90 3 125 13 140 18 23 30 14 50 -41 l15 -40 0 60 1 60
-34 2 c-19 1 -41 -4 -50 -10z"/>
<path d="M1307 505 c-25 -24 -37 -82 -37 -175 1 -104 11 -155 41 -186 17 -19
26 -21 41 -13 35 19 50 75 51 194 2 92 -1 117 -18 150 -22 44 -53 56 -78 30z"/>
</g>
</svg>
