<?xml version="1.0" standalone="no"?>
<!DOCTYPE svg PUBLIC "-//W3C//DTD SVG 20010904//EN"
 "http://www.w3.org/TR/2001/REC-SVG-20010904/DTD/svg10.dtd">
<svg version="1.0" xmlns="http://www.w3.org/2000/svg"
 width="383.000000pt" height="125.000000pt" viewBox="0 0 383.000000 125.000000"
 preserveAspectRatio="xMidYMid meet">
<metadata>
Created by potrace 1.14, written by Peter Selinger 2001-2017
</metadata>
<g transform="translate(0.000000,125.000000) scale(0.100000,-0.100000)"
fill="#000000" stroke="none">
<path d="M950 992 c0 -5 9 -17 20 -27 19 -17 20 -31 20 -340 0 -309 -1 -323
-20 -340 -11 -10 -20 -22 -20 -27 0 -4 36 -8 80 -8 44 0 80 4 80 8 0 5 -9 17
-20 27 -19 17 -20 31 -20 340 0 309 1 323 20 340 11 10 20 22 20 27 0 4 -36 8
-80 8 -44 0 -80 -4 -80 -8z"/>
<path d="M1179 971 c20 -28 21 -40 21 -346 0 -304 -1 -318 -21 -346 l-20 -29
70 0 c39 0 71 4 71 8 0 5 -9 17 -20 27 -19 17 -20 30 -19 274 l1 256 57 -265
c31 -146 60 -273 64 -283 4 -11 17 -17 37 -17 l30 0 0 346 c0 334 1 347 21
375 l20 29 -70 0 c-39 0 -71 -3 -71 -7 0 -4 9 -16 20 -28 19 -21 20 -33 18
-211 l-3 -189 -45 215 -45 215 -69 3 -68 3 21 -30z"/>
<path d="M1540 992 c0 -5 9 -17 20 -27 19 -17 20 -31 20 -340 0 -309 -1 -323
-20 -340 -11 -10 -20 -22 -20 -27 0 -4 37 -8 83 -8 157 0 191 53 203 320 7
160 -6 274 -41 345 -33 69 -64 85 -164 85 -45 0 -81 -4 -81 -8z m175 -72 c25
-49 38 -192 32 -355 -7 -176 -27 -258 -64 -263 l-23 -3 0 325 c0 318 0 326 20
326 12 0 26 -12 35 -30z"/>
<path d="M1900 992 c0 -5 9 -17 20 -27 19 -17 20 -31 20 -340 0 -309 -1 -323
-20 -340 -11 -10 -20 -22 -20 -27 0 -4 36 -8 80 -8 44 0 80 4 80 8 0 5 -9 17
-20 27 -19 17 -20 31 -20 340 0 309 1 323 20 340 11 10 20 22 20 27 0 4 -36 8
-80 8 -44 0 -80 -4 -80 -8z"/>
<path d="M2191 974 c-47 -39 -62 -104 -68 -286 -10 -290 32 -438 126 -438 64
0 98 57 106 177 6 86 -5 78 -25 -20 -14 -70 -46 -113 -77 -103 -41 13 -48 62
-48 336 0 230 2 259 18 284 10 15 25 26 35 24 26 -5 60 -64 73 -126 22 -101
28 -90 29 46 0 72 -3 132 -7 132 -3 0 -14 -7 -24 -16 -16 -15 -20 -15 -41 0
-32 23 -62 20 -97 -10z"/>
<path d="M2512 984 c-34 -23 -60 -84 -73 -166 -16 -103 -6 -387 16 -457 46
-147 164 -147 210 0 22 70 32 354 16 457 -18 118 -61 182 -121 182 -14 0 -36
-7 -48 -16z m76 -71 c15 -33 17 -73 17 -283 -1 -255 -11 -325 -45 -325 -35 0
-44 70 -45 325 0 210 2 250 17 283 9 20 22 37 28 37 6 0 19 -17 28 -37z"/>
</g>
</svg>
